<svg version="1.1" id="Layer_1" xmlns="http://www.w3.org/2000/svg" xmlns:xlink="http://www.w3.org/1999/xlink" x="0px" y="0px" viewBox="0 0 124.9 124.9">
<g>
	<path fill="#eadfd6" d="M62.5,0C28,0,0,28,0,62.5s28,62.5,62.5,62.5c34.4,0,62.5-28,62.5-62.5S96.9,0,62.5,0z M62.5,121.9
		C29.7,121.9,3,95.2,3,62.5S29.7,3,62.5,3c32.8,0,59.5,26.7,59.5,59.5S95.2,121.9,62.5,121.9z"/>
	<path fill="#eadfd6" d="M90,61.1L48.8,43.9c-0.5-0.2-1-0.1-1.4,0.1c-0.4,0.3-0.7,0.7-0.7,1.2v34.3c0,0.5,0.3,1,0.7,1.2
		c0.2,0.2,0.5,0.3,0.8,0.3c0.2,0,0.4,0,0.6-0.1L90,63.8c0.6-0.2,0.9-0.8,0.9-1.4S90.5,61.3,90,61.1z M49.8,77.3V47.6l35.7,14.9
		L49.8,77.3z"/>
</g>
</svg>
